<svg width="172" height="172" viewBox="0 0 172 172" fill="none" xmlns="http://www.w3.org/2000/svg">
<g clip-path="url(#clip0_21_223)">
<path opacity="0.35" d="M85.9999 157.667C46.4195 157.667 14.3332 125.58 14.3332 86C14.3332 46.4196 46.4195 14.3333 85.9999 14.3333C125.58 14.3333 157.667 46.4196 157.667 86C157.667 125.58 125.58 157.667 85.9999 157.667Z" fill="#D4B100"/>
<path d="M86.8385 100.14H86.8815C91.6832 100.14 95.3883 95.804 94.5642 91.074C92.0558 76.6475 80.8257 76.1458 80.8257 67.1875C80.8257 64.7007 81.2557 59.1322 87.247 59.1322C90.4863 59.1322 92.3927 61.2033 93.5035 63.4107C95.0013 66.3992 98.4557 67.8683 101.745 67.2878C106.733 66.3992 109.793 61.0528 107.679 56.4518C104.655 49.88 98.4628 43 86.2007 43C66.306 43 63.64 58.5803 63.64 65.9047C63.64 83.2194 76.5328 83.8644 79.206 93.8404C80.1735 97.438 83.1118 100.14 86.8385 100.14V100.14ZM76.5042 118.487C76.5042 121.439 77.4143 123.933 79.2418 125.961C81.0765 127.982 83.4773 129 86.43 129C89.397 129 91.7907 127.982 93.6182 125.961C95.4457 123.933 96.3702 121.439 96.3702 118.487C96.3702 115.598 95.4457 113.111 93.6182 110.997C91.7907 108.897 89.397 107.851 86.43 107.851C83.4773 107.851 81.0765 108.897 79.2418 110.997C77.4143 113.111 76.5042 115.606 76.5042 118.487Z" fill="#D4B100"/>
</g>
<defs>
<clipPath id="clip0_21_223">
<rect width="172" height="172" fill="white" transform="matrix(-1 0 0 1 172 0)"/>
</clipPath>
</defs>
</svg>
